<?xml version="1.0" encoding="UTF-8" standalone="no" ?>
<!DOCTYPE svg PUBLIC "-//W3C//DTD SVG 1.1//EN" "http://www.w3.org/Graphics/SVG/1.1/DTD/svg11.dtd">
<svg xmlns="http://www.w3.org/2000/svg" xmlns:xlink="http://www.w3.org/1999/xlink" version="1.1" width="1000" height="1000" viewBox="0 0 1000 1000" xml:space="preserve">
<desc>Created with Fabric.js 4.6.0</desc>
<defs>
</defs>
<g transform="matrix(1 0 0 1 500.11 326.74)" id="v7-hkD5QrczAZKj_jNzrP"  >
<path style="stroke: rgb(0,0,0); stroke-width: 1; stroke-dasharray: none; stroke-linecap: round; stroke-dashoffset: 0; stroke-linejoin: round; stroke-miterlimit: 10; fill: none; fill-rule: nonzero; opacity: 1;" vector-effect="non-scaling-stroke"  transform=" translate(-500.11, -326.74)" d="M 264.7347596197374 251.772870755998 Q 264.73375961973744 251.771870755998 264.73375961973744 251.10697713897673 Q 264.73375961973744 250.44208352195545 262.7390787686736 245.12293458578523 Q 260.7443979176098 239.803785649615 259.4146106835672 237.1442111815299 Q 258.08482344952466 234.4846367134448 257.4199298325034 231.82506224535967 Q 256.7550362154821 229.16548777727456 256.09014259846083 225.8410196921682 Q 255.42524898143955 222.51655160706184 255.42524898143955 215.2027218198278 Q 255.42524898143955 207.88889203259373 255.42524898143955 205.22931756450862 Q 255.42524898143955 202.5697430964235 256.09014259846083 197.9154877772746 Q 256.7550362154821 193.26123245812568 256.7550362154821 190.60165799004056 Q 256.7550362154821 187.94208352195545 258.08482344952466 185.94740267089162 Q 259.4146106835672 183.9527218198278 260.0795043005885 180.6282537347214 Q 260.7443979176098 177.303785649615 262.07418515165233 173.97931756450862 Q 263.4039723856949 170.65484947940223 264.73375961973744 169.32506224535967 Q 266.06354685378 167.99527501131712 267.39333408782255 164.00591330918948 Q 268.7231213218651 160.01655160706184 271.3826957899502 156.69208352195545 Q 274.04227025803533 153.36761543684906 280.6912064282481 145.38889203259373 Q 287.3401425984609 137.4101686283384 289.3348234495247 135.41548777727456 Q 291.32950430058855 133.42080692621073 293.3241851516524 131.42612607514693 Q 295.3188660027162 129.43144522408312 299.30822770484383 126.10697713897673 Q 303.29758940697144 122.78250905387034 308.61673834314166 120.78782820280651 Q 313.9358872793119 118.79314735174268 317.92524898143955 117.46336011770012 Q 321.9146106835672 116.13357288365756 327.8986532367587 113.47399841557245 Q 333.8826957899502 110.81442394748734 337.8720574920779 108.81974309642351 Q 341.86141919420555 106.82506224535967 346.5156745133545 104.83038139429584 Q 351.16992983250344 102.83570054323201 355.1592915346311 102.17080692621076 Q 359.1486532367588 101.50591330918951 361.80822770484383 101.50591330918951 Q 364.4678021729289 101.50591330918951 369.12205749207783 100.84101969216823 Q 373.7763128112268 100.17612607514695 382.4199298325034 99.51123245812568 Q 391.06354685378 98.8463388411044 392.39333408782255 98.8463388411044 Q 393.7231213218651 98.8463388411044 395.71780217292894 99.51123245812568 Q 397.7124830239928 100.17612607514695 399.7071638750566 100.17612607514695 Q 401.70184472612044 100.17612607514695 403.031631960163 100.84101969216823 Q 404.36141919420555 101.50591330918951 406.3561000452694 102.17080692621076 Q 408.3507808963332 102.83570054323201 409.0156745133545 103.50059416025329 Q 409.6805681303758 104.16548777727456 411.01035536441833 105.49527501131712 Q 412.3401425984609 106.82506224535967 413.66992983250344 106.82506224535967 Q 414.999717066546 106.82506224535967 416.32950430058855 108.81974309642351 Q 417.6592915346311 110.81442394748734 419.65397238569494 111.47931756450862 Q 421.6486532367588 112.1442111815299 423.64333408782255 113.47399841557245 Q 425.63801493888633 114.80378564961501 426.3029085559076 116.13357288365756 Q 426.9678021729289 117.46336011770012 428.29758940697144 117.46336011770012 Q 429.627376641014 117.46336011770012 431.62205749207783 120.12293458578523 Q 433.61673834314166 122.78250905387034 434.9465255771842 125.44208352195545 Q 436.2763128112268 128.10165799004056 437.60610004526933 130.0963388411044 Q 438.9358872793119 132.09101969216823 440.26567451335444 135.4154877772746 Q 441.595461747397 138.73995586238095 442.2603553644183 140.0697430964235 Q 442.92524898143955 141.39953033046606 444.2550362154821 146.053785649615 Q 445.58482344952466 150.70804096876395 446.24971706654594 156.02718990493418 Q 446.9146106835672 161.3463388411044 447.5795043005885 163.3410196921682 Q 448.2443979176098 165.335700543232 448.90929153463105 167.33038139429584 Q 449.57418515165233 169.32506224535967 449.57418515165233 175.30910479855118 Q 449.57418515165233 181.29314735174268 449.57418515165233 183.9527218198278 Q 449.57418515165233 186.6122962879129 449.57418515165233 189.271870755998 Q 449.57418515165233 191.93144522408312 449.57418515165233 194.5910196921682 Q 449.57418515165233 197.25059416025329 448.90929153463105 199.24527501131712 Q 448.2443979176098 201.23995586238095 447.5795043005885 203.2346367134448 Q 446.9146106835672 205.22931756450862 445.58482344952466 207.88889203259373 Q 444.2550362154821 210.54846650067884 440.26567451335444 217.19740267089162 Q 436.2763128112268 223.8463388411044 434.9465255771842 226.50591330918948 Q 433.61673834314166 229.16548777727456 431.62205749207783 231.82506224535967 Q 429.627376641014 234.4846367134448 426.30290855590766 237.80910479855118 Q 422.97844047080133 241.13357288365756 420.9837596197375 243.1282537347214 Q 418.98907876867366 245.12293458578523 416.32950430058855 247.78250905387034 Q 413.66992983250344 250.44208352195545 411.6752489814396 251.771870755998 Q 409.6805681303758 253.10165799004056 407.68588727931194 254.43144522408312 Q 405.6912064282481 255.76123245812568 403.031631960163 258.42080692621073 Q 400.3720574920779 261.08038139429584 399.04227025803533 263.0750622453597 Q 397.7124830239928 265.0697430964235 395.71780217292894 267.7293175645086 Q 393.7231213218651 270.38889203259373 391.06354685378 273.04846650067884 Q 388.4039723856949 275.70804096876395 385.0795043005885 279.03250905387034 Q 381.7550362154821 282.35697713897673 379.095461747397 285.01655160706184 Q 376.4358872793119 287.6761260751469 371.78163196016294 292.33038139429584 Q 367.127376641014 296.9846367134448 363.1380149388864 299.6442111815299 Q 359.1486532367588 302.303785649615 355.1592915346311 305.6282537347214 Q 351.16992983250344 308.9527218198278 346.5156745133545 314.27187075599795 Q 341.86141919420555 319.5910196921682 339.20184472612044 322.9154877772746 Q 336.54227025803533 326.239955862381 334.5475894069715 328.23463671344484 Q 332.55290855590766 330.2293175645087 329.89333408782255 333.553785649615 Q 327.23375961973744 336.87825373472134 325.9039723856949 338.2080409687639 Q 324.57418515165233 339.53782820280645 323.90929153463105 340.867615436849 Q 323.2443979176098 342.19740267089156 322.5795043005885 343.5271899049341 Q 321.9146106835672 344.8569771389767 321.24971706654594 345.52187075599795 Q 320.58482344952466 346.18676437301923 320.58482344952466 349.5112324581256 Q 320.58482344952466 352.835700543232 319.9199298325034 357.48995586238095 Q 319.2550362154821 362.1442111815299 320.58482344952466 374.1122962879129 Q 321.9146106835672 386.0803813942959 323.2443979176098 392.7293175645086 Q 324.57418515165233 399.37825373472134 324.57418515165233 402.70272181982773 Q 324.57418515165233 406.0271899049341 325.9039723856949 410.68144522408306 Q 327.23375961973744 415.335700543232 328.56354685378 420.65484947940223 Q 329.89333408782255 425.97399841557245 330.55822770484383 427.9686792666363 Q 331.2231213218651 429.9633601177001 332.55290855590766 433.9527218198278 Q 333.8826957899502 437.94208352195545 335.2124830239928 440.60165799004056 Q 336.54227025803533 443.2612324581257 338.53695110909916 445.9208069262108 Q 340.531631960163 448.5803813942959 342.52631281122683 452.56974309642357 Q 344.52099366229066 456.55910479855123 345.8507808963332 458.553785649615 Q 347.1805681303758 460.5484665006788 350.50503621548216 465.20272181982773 Q 353.82950430058855 469.8569771389767 357.8188660027162 473.18144522408306 Q 361.8082277048439 476.50591330918945 363.1380149388864 477.835700543232 Q 364.4678021729289 479.16548777727456 365.79758940697144 480.4952750113171 Q 367.127376641014 481.8250622453597 369.12205749207783 483.15484947940223 Q 371.11673834314166 484.4846367134448 374.44120642824805 486.4793175645086 Q 377.76567451335444 488.47399841557245 381.7550362154821 490.4686792666363 Q 385.7443979176098 492.4633601177001 391.06354685378 494.45804096876395 Q 396.3826957899502 496.4527218198278 400.3720574920779 498.4474026708916 Q 404.36141919420555 500.44208352195545 408.3507808963332 503.10165799004056 Q 412.3401425984609 505.7612324581257 414.3348234495247 507.09101969216823 Q 416.32950430058855 508.4208069262108 418.3241851516524 509.75059416025334 Q 420.3188660027162 511.0803813942959 420.9837596197375 511.7452750113172 Q 421.6486532367588 512.4101686283384 424.9731213218651 515.0697430964235 Q 428.29758940697144 517.7293175645086 432.2869511090991 519.7239984155724 Q 436.2763128112268 521.7186792666362 439.60078089633316 523.0484665006787 Q 442.92524898143955 524.3782537347213 453.56354685378 527.7027218198277 Q 464.20184472612044 531.0271899049342 466.1965255771843 531.6920835219554 Q 468.1912064282481 532.3569771389766 473.51035536441833 533.6867643730192 Q 478.82950430058855 535.0165516070617 483.48375961973744 537.0112324581256 Q 488.13801493888633 539.0059133091895 490.79758940697144 541.0005941602533 Q 493.45716387505655 542.9952750113171 499.44120642824805 544.3250622453596 Q 505.42524898143955 545.6548494794022 510.74439791760983 546.3197430964235 Q 516.06354685378 546.9846367134448 518.7231213218652 547.6495303304661 Q 521.3826957899503 548.3144239474873 524.0422702580354 548.9793175645086 Q 526.7018447261205 549.64421118153 530.6912064282482 550.9739984155725 Q 534.6805681303758 552.3037856496151 538.0050362154822 552.9686792666363 Q 541.3295043005885 553.6335728836575 548.6433340878225 554.2984665006788 Q 555.9571638750565 554.9633601177002 566.5954617473969 550.9739984155725 Q 577.2337596197374 546.9846367134448 583.8826957899502 543.6601686283384 Q 590.5316319601629 540.335700543232 595.1858872793119 536.3463388411043 Q 599.840142598461 532.3569771389766 605.8241851516524 529.6974026708915 Q 611.8082277048438 527.0378282028064 617.7922702580353 524.3782537347213 Q 623.7763128112267 521.7186792666362 629.7603553644183 519.7239984155724 Q 635.7443979176098 517.7293175645086 638.4039723856949 516.3995303304661 Q 641.06354685378 515.0697430964235 645.0529085559077 513.0750622453597 Q 649.0422702580354 511.0803813942959 655.6912064282482 507.7559133091895 Q 662.340142598461 504.4314452240831 665.6646106835673 502.4367643730193 Q 668.9890787686736 500.44208352195545 677.6326957899502 495.12293458578523 Q 686.2763128112267 489.803785649615 687.6061000452693 489.13889203259373 Q 688.9358872793118 488.47399841557245 695.5848234495246 483.15484947940223 Q 702.2337596197374 477.835700543232 702.8986532367587 475.8410196921682 Q 703.56354685378 473.84633884110434 704.8933340878226 473.18144522408306 Q 706.2231213218652 472.5165516070618 707.5529085559077 470.52187075599795 Q 708.8826957899503 468.5271899049341 709.5475894069715 467.86229628791284 Q 710.2124830239927 467.19740267089156 712.2071638750566 465.20272181982773 Q 714.2018447261205 463.2080409687639 718.8561000452694 455.2293175645086 Q 723.5103553644183 447.25059416025334 728.1646106835673 441.26655160706184 Q 732.8188660027163 435.28250905387034 733.4837596197375 431.95804096876395 Q 734.1486532367587 428.63357288365756 735.4784404708013 427.303785649615 Q 736.8082277048438 425.97399841557245 737.473121321865 423.9793175645086 Q 738.1380149388863 421.9846367134448 738.8029085559076 420.65484947940223 Q 739.4678021729289 419.3250622453597 739.4678021729289 417.9952750113171 Q 739.4678021729289 416.66548777727456 739.4678021729289 415.335700543232 Q 739.4678021729289 414.00591330918945 740.1326957899502 412.0112324581256 Q 740.7975894069714 410.0165516070618 742.1273766410139 408.68676437301923 Q 743.4571638750565 407.3569771389767 743.4571638750565 406.0271899049341 Q 743.4571638750565 404.69740267089156 744.1220574920778 402.03782820280645 Q 744.7869511090992 399.37825373472134 744.7869511090992 398.71336011770006 Q 744.7869511090992 398.0484665006788 744.7869511090992 396.053785649615 Q 744.7869511090992 394.05910479855123 744.7869511090992 392.0644239474874 Q 744.7869511090992 390.06974309642357 744.7869511090992 388.739955862381 Q 744.7869511090992 387.41016862833845 744.7869511090992 385.4154877772746 Q 744.7869511090992 383.4208069262108 744.7869511090992 381.42612607514695 Q 744.7869511090992 379.4314452240831 743.4571638750566 375.44208352195545 Q 742.127376641014 371.4527218198278 742.127376641014 370.7878282028065 Q 742.127376641014 370.12293458578523 740.7975894069715 366.79846650067884 Q 739.4678021729289 363.47399841557245 737.473121321865 359.4846367134448 Q 735.4784404708012 355.4952750113171 734.8135468537799 352.17080692621073 Q 734.1486532367587 348.84633884110434 728.1646106835673 339.5378282028065 Q 722.1805681303758 330.2293175645087 721.5156745133545 329.5644239474874 Q 720.8507808963332 328.8995303304661 719.5209936622906 326.9048494794023 Q 718.191206428248 324.91016862833845 717.5263128112268 323.5803813942959 Q 716.8614191942056 322.25059416025334 705.5582277048438 310.28250905387034 Q 694.255036215482 298.31442394748734 692.9252489814395 297.64953033046606 Q 691.5954617473969 296.9846367134448 690.9305681303757 296.3197430964235 Q 690.2656745133545 295.65484947940223 686.941206428248 293.6601686283384 Q 683.6167383431416 291.66548777727456 679.6273766410139 289.67080692621073 Q 675.6380149388863 287.6761260751469 673.6433340878225 286.3463388411044 Q 671.6486532367587 285.01655160706184 668.9890787686736 283.6867643730193 Q 666.3295043005885 282.35697713897673 663.6699298325034 281.69208352195545 Q 661.0103553644183 281.0271899049342 655.691206428248 279.03250905387034 Q 650.3720574920778 277.0378282028065 649.0422702580353 277.0378282028065 Q 647.7124830239927 277.0378282028065 643.723121321865 275.70804096876395 Q 639.7337596197374 274.3782537347214 636.409291534631 274.3782537347214 Q 633.0848234495247 274.3782537347214 630.4252489814396 273.7133601177001 Q 627.7656745133545 273.04846650067884 625.1061000452694 273.04846650067884 Q 622.4465255771843 273.04846650067884 617.127376641014 273.04846650067884 Q 611.8082277048438 273.04846650067884 610.4784404708013 273.04846650067884 Q 609.1486532367587 273.04846650067884 604.4943979176098 273.04846650067884 Q 599.840142598461 273.04846650067884 595.8507808963333 274.3782537347214 Q 591.8614191942056 275.70804096876395 589.8667383431417 275.70804096876395 Q 587.8720574920778 275.70804096876395 583.8826957899502 277.0378282028065 Q 579.8933340878225 278.36761543684906 577.2337596197374 280.3622962879129 Q 574.5741851516523 282.35697713897673 570.5848234495246 284.35165799004056 Q 566.5954617473969 286.3463388411044 564.6007808963332 287.67612607514695 Q 562.6061000452694 289.00591330918945 556.6220574920778 293.6601686283384 Q 550.6380149388863 298.31442394748734 545.9837596197374 301.63889203259373 Q 541.3295043005885 304.9633601177001 538.6699298325034 306.95804096876395 Q 536.0103553644183 308.9527218198278 534.0156745133545 310.9474026708916 Q 532.0209936622907 312.94208352195545 530.6912064282482 314.271870755998 Q 529.3614191942056 315.60165799004056 526.7018447261205 318.2612324581257 Q 524.0422702580354 320.9208069262108 522.7124830239928 322.9154877772746 Q 521.3826957899503 324.91016862833845 520.0529085559077 328.23463671344484 Q 518.7231213218652 331.55910479855123 516.06354685378 338.20804096876395 Q 513.4039723856949 344.8569771389767 512.7390787686736 350.1761260751469 Q 512.0741851516523 355.4952750113171 511.40929153463105 361.4793175645086 Q 510.7443979176098 367.4633601177001 510.0795043005885 370.7878282028065 Q 509.4146106835672 374.1122962879129 508.74971706654594 378.76655160706184 Q 508.08482344952466 383.4208069262108 508.08482344952466 386.0803813942959 Q 508.08482344952466 388.739955862381 507.4199298325034 391.3995303304661 Q 506.7550362154821 394.05910479855123 506.7550362154821 396.7186792666363 Q 506.7550362154821 399.37825373472134 508.08482344952466 405.36229628791284 Q 509.4146106835672 411.34633884110434 512.7390787686736 417.9952750113171 Q 516.06354685378 424.6442111815299 520.0529085559077 430.6282537347214 Q 524.0422702580354 436.6122962879129 527.3667383431417 442.5963388411044 Q 530.691206428248 448.5803813942959 536.0103553644183 454.56442394748734 Q 541.3295043005885 460.5484665006788 543.3241851516524 461.87825373472134 Q 545.3188660027163 463.2080409687639 547.31354685378 464.53782820280645 Q 549.3082277048438 465.867615436849 551.3029085559076 467.19740267089156 Q 553.2975894069714 468.5271899049341 555.2922702580353 468.5271899049341 Q 557.2869511090992 468.5271899049341 558.6167383431417 468.5271899049341 Q 559.9465255771843 468.5271899049341 561.941206428248 468.5271899049341 Q 563.9358872793118 468.5271899049341 569.255036215482 468.5271899049341 Q 574.5741851516523 468.5271899049341 579.2284404708013 467.19740267089156 Q 583.8826957899503 465.867615436849 585.2124830239928 465.20272181982773 Q 586.5422702580354 464.53782820280645 593.1912064282482 459.2186792666363 Q 599.840142598461 453.8995303304661 601.8348234495247 451.239955862381 Q 603.8295043005885 448.5803813942959 605.8241851516524 445.9208069262108 Q 607.8188660027163 443.2612324581257 609.81354685378 440.60165799004056 Q 611.8082277048438 437.94208352195545 612.473121321865 437.2771899049342 Q 613.1380149388863 436.6122962879129 613.8029085559076 433.9527218198278 Q 614.4678021729289 431.2931473517427 615.7975894069715 430.6282537347214 Q 617.127376641014 429.9633601177001 617.127376641014 428.63357288365756 Q 617.127376641014 427.303785649615 617.7922702580353 424.6442111815299 Q 618.4571638750565 421.9846367134448 618.4571638750565 419.3250622453597 Q 618.4571638750565 416.66548777727456 619.1220574920778 413.3410196921682 Q 619.7869511090992 410.0165516070618 619.7869511090992 408.68676437301923 Q 619.7869511090992 407.3569771389767 619.7869511090992 405.36229628791284 Q 619.7869511090992 403.367615436849 619.1220574920778 401.3729345857852 Q 618.4571638750565 399.37825373472134 617.7922702580353 398.0484665006788 Q 617.127376641014 396.71867926663623 617.127376641014 396.053785649615 Q 617.127376641014 395.3888920325938 616.4624830239927 394.7239984155725 Q 615.7975894069714 394.05910479855123 613.8029085559076 392.7293175645087 Q 611.8082277048438 391.3995303304661 611.1433340878225 390.06974309642357 Q 610.4784404708012 388.739955862381 608.4837596197374 387.41016862833845 Q 606.4890787686736 386.0803813942959 605.159291534631 385.4154877772746 Q 603.8295043005885 384.75059416025334 603.1646106835673 384.08570054323206 Q 602.499717066546 383.4208069262108 600.5050362154822 383.4208069262108 Q 598.5103553644183 383.4208069262108 596.5156745133545 382.7559133091895 Q 594.5209936622907 382.09101969216823 592.5263128112268 381.42612607514695 Q 590.5316319601629 380.7612324581257 589.2018447261204 380.7612324581257 Q 587.8720574920778 380.7612324581257 586.5422702580353 380.7612324581257 Q 585.2124830239927 380.7612324581257 584.5475894069715 380.7612324581257 Q 583.8826957899503 380.7612324581257 583.2178021729289 380.7612324581257 Q 582.5529085559076 380.7612324581257 581.223121321865 380.7612324581257 Q 579.8933340878225 380.7612324581257 578.5635468537799 382.09101969216823 Q 577.2337596197374 383.4208069262108 575.9039723856948 383.4208069262108 Q 574.5741851516523 383.4208069262108 574.5741851516523 384.08570054323206 Q 574.5741851516523 384.75059416025334 573.909291534631 385.4154877772746 Q 573.2443979176098 386.0803813942959 572.5795043005885 386.7452750113172 Q 571.9146106835672 387.41016862833845 571.2497170665459 388.07506224535973 Q 570.5848234495247 388.739955862381 569.9199298325034 389.4048494794023 L 569.2540362154821 390.07074309642354" stroke-linecap="round" />
</g>
</svg>